<svg xmlns="http://www.w3.org/2000/svg" width="32" height="32" viewBox="0 0 32 32" fill="none">
<path d="M9.33366 22.6667L13.6003 13.6L22.667 9.33332L18.4003 18.4L9.33366 22.6667ZM16.0003 14.8C15.6821 14.8 15.3768 14.9264 15.1518 15.1515C14.9268 15.3765 14.8003 15.6817 14.8003 16C14.8003 16.3182 14.9268 16.6235 15.1518 16.8485C15.3768 17.0736 15.6821 17.2 16.0003 17.2C16.3186 17.2 16.6238 17.0736 16.8489 16.8485C17.0739 16.6235 17.2003 16.3182 17.2003 16C17.2003 15.6817 17.0739 15.3765 16.8489 15.1515C16.6238 14.9264 16.3186 14.8 16.0003 14.8ZM16.0003 2.66666C17.7513 2.66666 19.4851 3.01153 21.1028 3.6816C22.7204 4.35166 24.1903 5.33378 25.4284 6.5719C26.6665 7.81001 27.6487 9.27987 28.3187 10.8975C28.9888 12.5152 29.3337 14.249 29.3337 16C29.3337 19.5362 27.9289 22.9276 25.4284 25.4281C22.9279 27.9286 19.5365 29.3333 16.0003 29.3333C14.2494 29.3333 12.5156 28.9884 10.8979 28.3184C9.2802 27.6483 7.81035 26.6662 6.57223 25.4281C4.07175 22.9276 2.66699 19.5362 2.66699 16C2.66699 12.4638 4.07175 9.07238 6.57223 6.5719C9.07272 4.07141 12.4641 2.66666 16.0003 2.66666ZM16.0003 5.33332C13.1713 5.33332 10.4582 6.45713 8.45785 8.45752C6.45747 10.4579 5.33366 13.171 5.33366 16C5.33366 18.829 6.45747 21.5421 8.45785 23.5425C10.4582 25.5428 13.1713 26.6667 16.0003 26.6667C18.8293 26.6667 21.5424 25.5428 23.5428 23.5425C25.5432 21.5421 26.667 18.829 26.667 16C26.667 13.171 25.5432 10.4579 23.5428 8.45752C21.5424 6.45713 18.8293 5.33332 16.0003 5.33332Z" fill="#F1870C"/>
</svg>