<svg xmlns="http://www.w3.org/2000/svg" width="45" height="45" viewBox="0 0 45 45" fill="none">
  <path d="M22.5 39.375V35.3906L32.4375 25.4531L36.4219 29.4375L26.4844 39.375H22.5ZM5.625 30V26.25H18.75V30H5.625ZM37.7344 28.125L33.75 24.1406L35.1094 22.7812C35.4531 22.4375 35.8906 22.2656 36.4219 22.2656C36.9531 22.2656 37.3906 22.4375 37.7344 22.7812L39.0938 24.1406C39.4375 24.4844 39.6094 24.9219 39.6094 25.4531C39.6094 25.9844 39.4375 26.4219 39.0938 26.7656L37.7344 28.125ZM5.625 22.5V18.75H26.25V22.5H5.625ZM5.625 15V11.25H26.25V15H5.625Z" fill="#F1870C"/>
</svg>