<svg xmlns="http://www.w3.org/2000/svg" width="18" height="18" viewBox="0 0 18 18" fill="none">
<path d="M13.1917 0.366392C13.0473 0.221893 12.8697 0.11499 12.6744 0.0550386C12.4791 -0.00491323 12.2721 -0.0160866 12.0715 0.0224963C11.8709 0.0610793 11.6828 0.148243 11.5236 0.276358C11.3645 0.404473 11.2392 0.569636 11.1587 0.757392L9.39871 4.86239C8.6649 4.64465 7.8859 4.62912 7.14399 4.81746C6.40208 5.0058 5.72481 5.391 5.18371 5.93239L3.82671 7.28739C3.68626 7.42802 3.60737 7.61864 3.60737 7.81739C3.60737 8.01614 3.68626 8.20677 3.82671 8.34739L5.96871 10.4904L0.228709 16.2294C0.157109 16.2986 0.100012 16.3814 0.0607493 16.4729C0.0214863 16.5644 0.000843397 16.6629 2.53084e-05 16.7624C-0.00079278 16.862 0.0182302 16.9608 0.0559843 17.0529C0.0937384 17.1451 0.149468 17.2288 0.21992 17.2992C0.290372 17.3696 0.374137 17.4252 0.466327 17.4629C0.558516 17.5006 0.657284 17.5195 0.756868 17.5186C0.856452 17.5177 0.954857 17.4969 1.04634 17.4576C1.13783 17.4182 1.22056 17.3611 1.28971 17.2894L7.02971 11.5504L9.17071 13.6924C9.31133 13.8328 9.50196 13.9117 9.70071 13.9117C9.89946 13.9117 10.0901 13.8328 10.2307 13.6924L11.5877 12.3364C12.1295 11.7951 12.5149 11.1175 12.7032 10.3752C12.8916 9.63289 12.8758 8.85349 12.6577 8.11939L16.7627 6.35939C16.9504 6.27893 17.1154 6.15373 17.2435 5.99474C17.3716 5.83575 17.4588 5.6478 17.4975 5.44733C17.5361 5.24685 17.5251 5.03996 17.4654 4.84473C17.4056 4.6495 17.299 4.47188 17.1547 4.32739L13.1917 0.366392Z" fill="white"/>
</svg>