<svg xmlns="http://www.w3.org/2000/svg" width="24" height="24" viewBox="0 0 24 24" fill="none">
  <path d="M5.00038 2.99999L5.00038 21C5.00095 21.1822 5.05122 21.3609 5.14576 21.5167C5.2403 21.6725 5.37555 21.7995 5.53693 21.8842C5.69832 21.9688 5.87974 22.0079 6.06167 21.9971C6.24359 21.9863 6.41913 21.9261 6.56938 21.823L19.5694 12.823C20.1084 12.45 20.1084 11.552 19.5694 11.178L6.56938 2.17799C6.41944 2.07382 6.24381 2.01273 6.06159 2.00136C5.87936 1.98999 5.6975 2.02878 5.53578 2.11351C5.37405 2.19824 5.23863 2.32567 5.14424 2.48196C5.04985 2.63825 5.0001 2.81741 5.00038 2.99999Z" fill="#F1870C"/>
</svg>