<svg xmlns="http://www.w3.org/2000/svg" width="37" height="37" viewBox="0 0 37 37" fill="none">
<path d="M30.6487 28.4746C31.327 27.3954 31.7278 26.1467 31.7278 24.79C31.7278 20.9513 28.6291 17.8525 24.7903 17.8525C20.9516 17.8525 17.8528 20.9513 17.8528 24.79C17.8528 28.6288 20.9516 31.7275 24.7749 31.7275C26.1316 31.7275 27.3957 31.3267 28.4595 30.6483L33.2695 35.4583L35.4587 33.2692L30.6487 28.4746ZM24.7903 28.6442C23.7681 28.6442 22.7878 28.2381 22.065 27.5153C21.3422 26.7925 20.9362 25.8122 20.9362 24.79C20.9362 23.7678 21.3422 22.7875 22.065 22.0647C22.7878 21.3419 23.7681 20.9358 24.7903 20.9358C25.8125 20.9358 26.7928 21.3419 27.5156 22.0647C28.2384 22.7875 28.6445 23.7678 28.6445 24.79C28.6445 25.8122 28.2384 26.7925 27.5156 27.5153C26.7928 28.2381 25.8125 28.6442 24.7903 28.6442ZM24.2353 15.54C23.0945 15.5708 21.9999 15.8175 20.9978 16.2338L20.1499 14.9542L14.2916 24.4817L9.65116 19.055L4.05491 28.0121L1.54199 26.2083L9.25033 13.875L13.8753 19.2708L20.042 9.25001L24.2353 15.54ZM28.2282 16.3108C27.2416 15.8792 26.1778 15.6171 25.0678 15.5554L32.9612 3.08334L35.4587 4.90251L28.2282 16.3108Z" fill="#F1870C"/>
</svg>